<svg width="300" height="320" viewBox="0 0 300 320" fill="none" xmlns="http://www.w3.org/2000/svg">
<path d="M184.421 286.263C184.421 288.876 184.104 291.414 183.506 293.842H122.178C121.58 291.414 121.263 288.876 121.263 286.263H184.421Z" fill="whitesmoke"/>
<path d="M126.675 303.947C124.98 301.443 123.634 298.683 122.709 295.737H182.975C182.05 298.683 180.704 301.443 179.009 303.947H126.675Z" fill="whitesmoke"/>
<path d="M128.064 305.842C133.847 313.152 142.797 317.842 152.842 317.842C162.887 317.842 171.837 313.152 177.621 305.842H128.064Z" fill="whitesmoke"/>
<path d="M110.755 86.0099L136.112 62.797C145.986 53.7581 160.451 54.3101 169.732 64.08L189.651 85.0477C193.177 88.7596 197.868 90.8313 202.748 90.8313H219.764C232.135 90.8313 241.188 103.667 238.118 116.855L234.14 133.946C233.016 138.773 234.1 143.9 237.045 147.684L258.141 174.797C261.921 179.656 260.871 187.08 255.928 190.444L239.866 201.376C235.278 204.498 232.747 210.259 233.373 216.154L235.651 237.602C236.393 244.591 230.761 250.364 224.479 249.055L210.742 246.193C208.268 245.677 205.713 246.374 203.744 248.101C201.225 250.31 200.03 253.877 200.645 257.357L201.66 263.111C203.16 271.608 195.141 278.299 188.111 274.417L185.134 272.773C184.067 272.183 182.953 271.756 181.819 271.488C182.157 263.48 187.751 255.433 194.232 249.369C216.104 233.923 230.596 206.925 230.596 176.203C230.596 128.223 195.25 89.3279 151.648 89.3279C108.047 89.3279 72.701 128.223 72.701 176.203C72.701 204.618 85.0977 229.846 104.264 245.696C104.774 246.249 105.362 246.868 106.006 247.547C111.165 252.988 119.943 262.242 121.547 271.388C120.383 271.694 119.243 272.17 118.16 272.817L112.579 276.148C106.497 279.778 99.0446 275.242 98.6073 267.643L97.844 254.382C97.7433 252.633 97.1589 250.959 96.1691 249.586C94.3147 247.013 91.2896 245.828 88.3749 246.533L79.9253 248.577C73.5951 250.109 67.768 244.35 68.4739 237.26L70.4798 217.111C71.1148 210.733 68.0635 204.597 62.8396 201.747L41.8989 190.323C36.1824 187.204 34.8453 178.885 39.243 173.797L62.1914 147.251C65.2378 143.727 66.5788 138.819 65.8034 134.03L62.7766 115.339C60.7074 102.562 69.6357 90.8313 81.4301 90.8313H98.6376C103.065 90.8313 107.352 89.1255 110.755 86.0099Z" fill="whitesmoke"/>
<path d="M151.579 27.3158H154.737V46.2632H151.579V27.3158Z" fill="whitesmoke"/>
<rect x="247.696" y="75.9474" width="3.1579" height="18.9474" transform="rotate(39.7548 247.696 75.9474)" fill="whitesmoke"/>
<rect x="283.729" y="108.158" width="5.05263" height="12.6316" transform="rotate(49.6303 283.729 108.158)" fill="whitesmoke"/>
<circle cx="269.684" cy="180.158" r="2.52632" fill="whitesmoke"/>
<circle cx="214.105" cy="39.3158" r="2.52632" fill="whitesmoke"/>
<circle cx="219.158" cy="29.8421" r="2.52632" fill="whitesmoke"/>
<circle cx="297.474" cy="175.105" r="2.52632" fill="whitesmoke"/>
<circle cx="282.947" cy="177" r="2.52632" fill="whitesmoke"/>
<rect x="262.854" y="58.2632" width="1.89474" height="18.9474" transform="rotate(39.7548 262.854 58.2632)" fill="whitesmoke"/>
<path d="M151.579 3H154.737V21.9474H151.579V3Z" fill="whitesmoke"/>
<circle cx="202.421" cy="60.4737" r="14.2105" fill="whitesmoke"/>
<circle cx="259.895" cy="130.579" r="14.2105" fill="whitesmoke"/>
<circle cx="250.737" cy="219.947" r="9.47368" fill="whitesmoke"/>
<rect width="3.15789" height="18.9474" transform="matrix(-0.768788 0.639504 0.639504 0.768788 51.6909 75.9474)" fill="whitesmoke"/>
<rect width="5.05263" height="12.6316" transform="matrix(-0.647717 0.761881 0.761881 0.647717 16.271 107.842)" fill="whitesmoke"/>
<circle r="2.52632" transform="matrix(-1 0 0 1 28.421 179.526)" fill="whitesmoke"/>
<circle r="2.52632" transform="matrix(-1 0 0 1 85.8947 39)" fill="whitesmoke"/>
<circle r="2.52632" transform="matrix(-1 0 0 1 80.8421 29.5263)" fill="whitesmoke"/>
<circle r="2.52632" transform="matrix(-1 0 0 1 2.52633 174.789)" fill="whitesmoke"/>
<circle r="2.52632" transform="matrix(-1 0 0 1 15.1579 177)" fill="whitesmoke"/>
<rect width="1.89474" height="18.9474" transform="matrix(-0.768788 0.639504 0.639504 0.768788 36.8251 58.2632)" fill="whitesmoke"/>
<circle r="14.2105" transform="matrix(-1 0 0 1 97.5789 60.1579)" fill="whitesmoke"/>
<circle r="14.2105" transform="matrix(-1 0 0 1 42.6316 130.579)" fill="whitesmoke"/>
<circle r="9.47368" transform="matrix(-1 0 0 1 49.2632 219.632)" fill="whitesmoke"/>
<path d="M132.5 176.154L151.5 151.5L169.5 176.154H158C154 201.795 162.5 250.487 182.5 271H121C141.4 245.564 148.5 193.5 143.5 176.154H132.5Z" fill="whitesmoke  "/>
</svg>
