<svg width="1400" height="320" viewBox="0 0 1400 320" fill="none" xmlns="http://www.w3.org/2000/svg">
<g clip-path="url(#clip0)">
<mask id="mask0" mask-type="alpha" maskUnits="userSpaceOnUse" x="8" y="3" width="1323" height="315">
<path d="M192.421 286.263C192.421 288.876 192.104 291.414 191.506 293.842H130.179C129.58 291.414 129.263 288.876 129.263 286.263H192.421Z" fill="#6DD26B"/>
<path d="M134.675 303.947C132.98 301.443 131.634 298.683 130.709 295.737H190.975C190.05 298.683 188.704 301.443 187.009 303.947H134.675Z" fill="#6DD26B"/>
<path d="M136.064 305.842C141.847 313.152 150.797 317.842 160.842 317.842C170.887 317.842 179.837 313.152 185.621 305.842H136.064Z" fill="#6DD26B"/>
<path d="M118.755 86.0099L144.112 62.797C153.986 53.7581 168.451 54.3101 177.732 64.0799L197.651 85.0477C201.177 88.7596 205.868 90.8313 210.748 90.8313H227.764C240.135 90.8313 249.188 103.667 246.118 116.855L242.14 133.946C241.016 138.773 242.1 143.899 245.045 147.684L266.141 174.797C269.921 179.656 268.871 187.08 263.928 190.444L247.866 201.376C243.278 204.498 240.747 210.259 241.373 216.154L243.651 237.602C244.393 244.59 238.761 250.364 232.479 249.055L218.742 246.193C216.268 245.677 213.713 246.374 211.744 248.101C209.225 250.31 208.03 253.877 208.645 257.357L209.66 263.111C211.16 271.608 203.141 278.299 196.111 274.416L193.134 272.773C192.067 272.183 190.953 271.756 189.819 271.488C190.157 263.48 195.751 255.433 202.232 249.369C224.104 233.923 238.596 206.925 238.596 176.203C238.596 128.223 203.25 89.3279 159.648 89.3279C116.047 89.3279 80.701 128.223 80.701 176.203C80.701 204.618 93.0977 229.846 112.264 245.696C112.774 246.249 113.362 246.868 114.006 247.547C119.165 252.988 127.943 262.242 129.547 271.387C128.383 271.694 127.243 272.17 126.16 272.817L120.579 276.148C114.497 279.778 107.045 275.242 106.607 267.643L105.844 254.382C105.743 252.633 105.159 250.959 104.169 249.586C102.315 247.013 99.2896 245.828 96.3749 246.533L87.9253 248.577C81.5951 250.109 75.768 244.35 76.4739 237.26L78.4798 217.111C79.1148 210.733 76.0635 204.597 70.8396 201.747L49.8989 190.323C44.1824 187.204 42.8453 178.885 47.243 173.797L70.1914 147.251C73.2378 143.727 74.5788 138.819 73.8034 134.03L70.7766 115.339C68.7074 102.562 77.6357 90.8313 89.4301 90.8313H106.638C111.065 90.8313 115.352 89.1255 118.755 86.0099Z" fill="#6DD26B"/>
<path d="M159.579 27.3158H162.737V46.2632H159.579V27.3158Z" fill="#6DD26B"/>
<rect x="255.696" y="75.9474" width="3.1579" height="18.9474" transform="rotate(39.7548 255.696 75.9474)" fill="#6DD26B"/>
<rect x="291.729" y="108.158" width="5.05263" height="12.6316" transform="rotate(49.6303 291.729 108.158)" fill="#6DD26B"/>
<circle cx="277.684" cy="180.158" r="2.52632" fill="#6DD26B"/>
<circle cx="222.105" cy="39.3158" r="2.52632" fill="#6DD26B"/>
<circle cx="227.158" cy="29.8421" r="2.52632" fill="#6DD26B"/>
<circle cx="305.474" cy="175.105" r="2.52632" fill="#6DD26B"/>
<circle cx="290.947" cy="177" r="2.52632" fill="#6DD26B"/>
<rect x="270.854" y="58.2632" width="1.89474" height="18.9474" transform="rotate(39.7548 270.854 58.2632)" fill="#6DD26B"/>
<path d="M159.579 3H162.737V21.9474H159.579V3Z" fill="#6DD26B"/>
<circle cx="210.421" cy="60.4737" r="14.2105" fill="#6DD26B"/>
<circle cx="267.895" cy="130.579" r="14.2105" fill="#6DD26B"/>
<circle cx="258.737" cy="219.947" r="9.47368" fill="#6DD26B"/>
<rect width="3.15789" height="18.9474" transform="matrix(-0.768788 0.639504 0.639504 0.768788 59.6909 75.9474)" fill="#6DD26B"/>
<rect width="5.05263" height="12.6316" transform="matrix(-0.647717 0.761881 0.761881 0.647717 24.271 107.842)" fill="#6DD26B"/>
<circle r="2.52632" transform="matrix(-1 0 0 1 36.4209 179.526)" fill="#6DD26B"/>
<circle r="2.52632" transform="matrix(-1 0 0 1 93.8947 39)" fill="#6DD26B"/>
<circle r="2.52632" transform="matrix(-1 0 0 1 88.8421 29.5263)" fill="#6DD26B"/>
<circle r="2.52632" transform="matrix(-1 0 0 1 10.5263 174.789)" fill="#6DD26B"/>
<circle r="2.52632" transform="matrix(-1 0 0 1 23.1579 177)" fill="#6DD26B"/>
<rect width="1.89474" height="18.9474" transform="matrix(-0.768788 0.639504 0.639504 0.768788 44.8251 58.2632)" fill="#6DD26B"/>
<circle r="14.2105" transform="matrix(-1 0 0 1 105.579 60.1579)" fill="#6DD26B"/>
<circle r="14.2105" transform="matrix(-1 0 0 1 50.6315 130.579)" fill="#6DD26B"/>
<circle r="9.47368" transform="matrix(-1 0 0 1 57.2631 219.632)" fill="#6DD26B"/>
<path d="M140.5 176.154L159.5 151.5L177.5 176.154H166C162 201.795 170.5 250.487 190.5 271H129C149.4 245.564 156.5 193.5 151.5 176.154H140.5Z" fill="#C4C4C4"/>
<path d="M871.56 143.04C872.307 144.213 872.947 145.813 873.48 147.84C874.12 149.76 874.44 151.787 874.44 153.92C874.44 158.08 873.533 161.067 871.72 162.88C870.013 164.587 867.667 165.44 864.68 165.44H831.08V183.52H866.12C866.973 184.693 867.667 186.24 868.2 188.16C868.84 190.08 869.16 192.107 869.16 194.24C869.16 198.293 868.253 201.227 866.44 203.04C864.733 204.747 862.387 205.6 859.4 205.6H831.4V239.36C830.227 239.68 828.36 240 825.8 240.32C823.347 240.64 820.893 240.8 818.44 240.8C815.987 240.8 813.8 240.587 811.88 240.16C810.067 239.84 808.52 239.2 807.24 238.24C805.96 237.28 805 235.947 804.36 234.24C803.72 232.533 803.4 230.293 803.4 227.52V157.92C803.4 153.333 804.733 149.707 807.4 147.04C810.067 144.373 813.693 143.04 818.28 143.04H871.56ZM884.43 140.64C884.43 136.587 885.763 133.173 888.43 130.4C891.203 127.627 894.83 126.24 899.31 126.24C903.79 126.24 907.363 127.627 910.03 130.4C912.803 133.173 914.19 136.587 914.19 140.64C914.19 144.693 912.803 148.107 910.03 150.88C907.363 153.653 903.79 155.04 899.31 155.04C894.83 155.04 891.203 153.653 888.43 150.88C885.763 148.107 884.43 144.693 884.43 140.64ZM912.91 239.84C911.737 240.053 909.977 240.32 907.63 240.64C905.39 241.067 903.097 241.28 900.75 241.28C898.403 241.28 896.27 241.12 894.35 240.8C892.537 240.48 890.99 239.84 889.71 238.88C888.43 237.92 887.417 236.64 886.67 235.04C886.03 233.333 885.71 231.147 885.71 228.48V163.36C886.883 163.147 888.59 162.88 890.83 162.56C893.177 162.133 895.523 161.92 897.87 161.92C900.217 161.92 902.297 162.08 904.11 162.4C906.03 162.72 907.63 163.36 908.91 164.32C910.19 165.28 911.15 166.613 911.79 168.32C912.537 169.92 912.91 172.053 912.91 174.72V239.84ZM968.146 159.84C974.226 159.84 979.72 160.64 984.626 162.24C989.64 163.733 993.853 165.707 997.266 168.16C999.4 169.653 1001.05 171.307 1002.23 173.12C1003.51 174.933 1004.15 177.28 1004.15 180.16V236.16C1004.15 241.813 1003.08 246.667 1000.95 250.72C998.813 254.88 995.88 258.293 992.146 260.96C988.52 263.733 984.2 265.76 979.186 267.04C974.28 268.32 969 268.96 963.346 268.96C953.64 268.96 946.013 267.627 940.466 264.96C934.92 262.4 932.146 258.187 932.146 252.32C932.146 249.867 932.626 247.68 933.586 245.76C934.653 243.947 935.826 242.56 937.106 241.6C940.2 243.307 943.666 244.747 947.506 245.92C951.453 247.093 955.506 247.68 959.666 247.68C965.426 247.68 970.013 246.72 973.426 244.8C976.84 242.88 978.546 239.787 978.546 235.52V232.96C974.173 234.88 968.84 235.84 962.546 235.84C957.746 235.84 953.16 235.147 948.786 233.76C944.52 232.267 940.733 230.027 937.426 227.04C934.226 223.947 931.613 220 929.586 215.2C927.666 210.4 926.706 204.693 926.706 198.08C926.706 191.573 927.72 185.92 929.746 181.12C931.88 176.32 934.76 172.373 938.386 169.28C942.12 166.08 946.493 163.733 951.506 162.24C956.626 160.64 962.173 159.84 968.146 159.84ZM978.066 183.04C977.32 182.613 976.2 182.187 974.706 181.76C973.32 181.333 971.56 181.12 969.426 181.12C964.2 181.12 960.253 182.613 957.586 185.6C955.026 188.48 953.746 192.64 953.746 198.08C953.746 204.267 955.026 208.747 957.586 211.52C960.253 214.187 963.613 215.52 967.666 215.52C972.04 215.52 975.506 214.507 978.066 212.48V183.04ZM1021.01 163.36C1022.07 163.04 1023.73 162.72 1025.97 162.4C1028.31 162.08 1030.71 161.92 1033.17 161.92C1035.51 161.92 1037.59 162.08 1039.41 162.4C1041.33 162.72 1042.93 163.36 1044.21 164.32C1045.49 165.28 1046.45 166.613 1047.09 168.32C1047.83 169.92 1048.21 172.053 1048.21 174.72V209.12C1048.21 213.493 1049.27 216.64 1051.41 218.56C1053.54 220.373 1056.63 221.28 1060.69 221.28C1063.14 221.28 1065.11 221.067 1066.61 220.64C1068.21 220.213 1069.43 219.787 1070.29 219.36V163.36C1071.35 163.04 1073.01 162.72 1075.25 162.4C1077.59 162.08 1079.99 161.92 1082.45 161.92C1084.79 161.92 1086.87 162.08 1088.69 162.4C1090.61 162.72 1092.21 163.36 1093.49 164.32C1094.77 165.28 1095.73 166.613 1096.37 168.32C1097.11 169.92 1097.49 172.053 1097.49 174.72V223.36C1097.49 228.693 1095.25 232.693 1090.77 235.36C1087.03 237.707 1082.55 239.467 1077.33 240.64C1072.21 241.92 1066.61 242.56 1060.53 242.56C1054.77 242.56 1049.43 241.92 1044.53 240.64C1039.73 239.36 1035.57 237.387 1032.05 234.72C1028.53 232.053 1025.81 228.64 1023.89 224.48C1021.97 220.213 1021.01 215.093 1021.01 209.12V163.36ZM1141.33 239.84C1140.27 240.16 1138.56 240.48 1136.21 240.8C1133.97 241.12 1131.63 241.28 1129.17 241.28C1126.83 241.28 1124.69 241.12 1122.77 240.8C1120.96 240.48 1119.41 239.84 1118.13 238.88C1116.85 237.92 1115.84 236.64 1115.09 235.04C1114.45 233.333 1114.13 231.147 1114.13 228.48V180.48C1114.13 178.027 1114.56 175.947 1115.41 174.24C1116.37 172.427 1117.71 170.827 1119.41 169.44C1121.12 168.053 1123.2 166.827 1125.65 165.76C1128.21 164.587 1130.93 163.573 1133.81 162.72C1136.69 161.867 1139.68 161.227 1142.77 160.8C1145.87 160.267 1148.96 160 1152.05 160C1157.17 160 1161.23 161.013 1164.21 163.04C1167.2 164.96 1168.69 168.16 1168.69 172.64C1168.69 174.133 1168.48 175.627 1168.05 177.12C1167.63 178.507 1167.09 179.787 1166.45 180.96C1164.21 180.96 1161.92 181.067 1159.57 181.28C1157.23 181.493 1154.93 181.813 1152.69 182.24C1150.45 182.667 1148.32 183.147 1146.29 183.68C1144.37 184.107 1142.72 184.64 1141.33 185.28V239.84ZM1218.07 242.56C1211.77 242.56 1205.91 241.707 1200.47 240C1195.13 238.187 1190.44 235.52 1186.39 232C1182.44 228.48 1179.29 224.053 1176.95 218.72C1174.71 213.387 1173.59 207.147 1173.59 200C1173.59 192.96 1174.71 186.933 1176.95 181.92C1179.29 176.8 1182.33 172.64 1186.07 169.44C1189.8 166.133 1194.07 163.733 1198.87 162.24C1203.67 160.64 1208.57 159.84 1213.59 159.84C1219.24 159.84 1224.36 160.693 1228.95 162.4C1233.64 164.107 1237.64 166.453 1240.95 169.44C1244.36 172.427 1246.97 176 1248.79 180.16C1250.71 184.32 1251.67 188.853 1251.67 193.76C1251.67 197.387 1250.65 200.16 1248.62 202.08C1246.6 204 1243.77 205.227 1240.15 205.76L1200.63 211.68C1201.8 215.2 1204.2 217.867 1207.83 219.68C1211.45 221.387 1215.61 222.24 1220.31 222.24C1224.68 222.24 1228.79 221.707 1232.63 220.64C1236.57 219.467 1239.77 218.133 1242.23 216.64C1243.93 217.707 1245.37 219.2 1246.55 221.12C1247.72 223.04 1248.31 225.067 1248.31 227.2C1248.31 232 1246.07 235.573 1241.59 237.92C1238.17 239.733 1234.33 240.96 1230.07 241.6C1225.8 242.24 1221.8 242.56 1218.07 242.56ZM1213.59 179.68C1211.03 179.68 1208.79 180.107 1206.87 180.96C1205.05 181.813 1203.56 182.933 1202.39 184.32C1201.21 185.6 1200.31 187.093 1199.67 188.8C1199.13 190.4 1198.81 192.053 1198.71 193.76L1226.07 189.28C1225.75 187.147 1224.57 185.013 1222.55 182.88C1220.52 180.747 1217.53 179.68 1213.59 179.68ZM1330.36 216.8C1330.36 224.907 1327.32 231.253 1321.24 235.84C1315.16 240.427 1306.2 242.72 1294.36 242.72C1289.88 242.72 1285.72 242.4 1281.88 241.76C1278.04 241.12 1274.73 240.16 1271.96 238.88C1269.29 237.493 1267.16 235.787 1265.56 233.76C1264.06 231.733 1263.32 229.333 1263.32 226.56C1263.32 224 1263.85 221.867 1264.92 220.16C1265.98 218.347 1267.26 216.853 1268.76 215.68C1271.85 217.387 1275.37 218.933 1279.32 220.32C1283.37 221.6 1288.01 222.24 1293.24 222.24C1296.54 222.24 1299.05 221.76 1300.76 220.8C1302.57 219.84 1303.48 218.56 1303.48 216.96C1303.48 215.467 1302.84 214.293 1301.56 213.44C1300.28 212.587 1298.14 211.893 1295.16 211.36L1290.36 210.4C1281.08 208.587 1274.14 205.76 1269.56 201.92C1265.08 197.973 1262.84 192.373 1262.84 185.12C1262.84 181.173 1263.69 177.6 1265.4 174.4C1267.1 171.2 1269.5 168.533 1272.6 166.4C1275.69 164.267 1279.37 162.613 1283.64 161.44C1288.01 160.267 1292.81 159.68 1298.04 159.68C1301.98 159.68 1305.66 160 1309.08 160.64C1312.6 161.173 1315.64 162.027 1318.2 163.2C1320.76 164.373 1322.78 165.92 1324.28 167.84C1325.77 169.653 1326.52 171.84 1326.52 174.4C1326.52 176.853 1326.04 178.987 1325.08 180.8C1324.22 182.507 1323.1 183.947 1321.72 185.12C1320.86 184.587 1319.58 184.053 1317.88 183.52C1316.17 182.88 1314.3 182.347 1312.28 181.92C1310.25 181.387 1308.17 180.96 1306.04 180.64C1304.01 180.32 1302.14 180.16 1300.44 180.16C1296.92 180.16 1294.2 180.587 1292.28 181.44C1290.36 182.187 1289.4 183.413 1289.4 185.12C1289.4 186.293 1289.93 187.253 1291 188C1292.06 188.747 1294.09 189.44 1297.08 190.08L1302.04 191.2C1312.28 193.547 1319.53 196.8 1323.8 200.96C1328.17 205.013 1330.36 210.293 1330.36 216.8Z" fill="black"/>
<path d="M372.6 220C374.093 220.427 376.013 220.747 378.36 220.96C380.707 221.067 382.947 221.12 385.08 221.12C389.347 221.12 392.867 220.267 395.64 218.56C398.52 216.747 399.96 213.973 399.96 210.24C399.96 206.72 398.787 204.213 396.44 202.72C394.093 201.227 390.52 200.48 385.72 200.48H372.6V220ZM372.6 180.96H384.28C388.867 180.96 392.173 180.107 394.2 178.4C396.333 176.693 397.4 174.187 397.4 170.88C397.4 168 396.173 165.707 393.72 164C391.373 162.293 387.8 161.44 383 161.44C381.4 161.44 379.533 161.493 377.4 161.6C375.373 161.707 373.773 161.867 372.6 162.08V180.96ZM383 242.56C381.187 242.56 379.053 242.507 376.6 242.4C374.147 242.293 371.587 242.08 368.92 241.76C366.36 241.44 363.8 241.013 361.24 240.48C358.68 240.053 356.333 239.413 354.2 238.56C348.333 236.32 345.4 232.427 345.4 226.88V152.16C345.4 149.92 345.987 148.213 347.16 147.04C348.44 145.76 350.147 144.747 352.28 144C355.907 142.72 360.44 141.813 365.88 141.28C371.32 140.64 376.92 140.32 382.68 140.32C396.333 140.32 406.84 142.613 414.2 147.2C421.56 151.787 425.24 158.88 425.24 168.48C425.24 173.28 423.853 177.44 421.08 180.96C418.307 184.373 414.573 186.88 409.88 188.48C415.213 189.973 419.64 192.693 423.16 196.64C426.787 200.587 428.6 205.547 428.6 211.52C428.6 222.08 424.653 229.92 416.76 235.04C408.973 240.053 397.72 242.56 383 242.56ZM469.114 239.84C468.047 240.16 466.34 240.48 463.994 240.8C461.754 241.12 459.407 241.28 456.954 241.28C454.607 241.28 452.474 241.12 450.554 240.8C448.74 240.48 447.194 239.84 445.914 238.88C444.634 237.92 443.62 236.64 442.874 235.04C442.234 233.333 441.914 231.147 441.914 228.48V180.48C441.914 178.027 442.34 175.947 443.194 174.24C444.154 172.427 445.487 170.827 447.194 169.44C448.9 168.053 450.98 166.827 453.434 165.76C455.994 164.587 458.714 163.573 461.594 162.72C464.474 161.867 467.46 161.227 470.554 160.8C473.647 160.267 476.74 160 479.834 160C484.954 160 489.007 161.013 491.994 163.04C494.98 164.96 496.474 168.16 496.474 172.64C496.474 174.133 496.26 175.627 495.834 177.12C495.407 178.507 494.874 179.787 494.234 180.96C491.994 180.96 489.7 181.067 487.354 181.28C485.007 181.493 482.714 181.813 480.474 182.24C478.234 182.667 476.1 183.147 474.074 183.68C472.154 184.107 470.5 184.64 469.114 185.28V239.84ZM507.055 140.64C507.055 136.587 508.388 133.173 511.055 130.4C513.828 127.627 517.455 126.24 521.935 126.24C526.415 126.24 529.988 127.627 532.655 130.4C535.428 133.173 536.815 136.587 536.815 140.64C536.815 144.693 535.428 148.107 532.655 150.88C529.988 153.653 526.415 155.04 521.935 155.04C517.455 155.04 513.828 153.653 511.055 150.88C508.388 148.107 507.055 144.693 507.055 140.64ZM535.535 239.84C534.362 240.053 532.602 240.32 530.255 240.64C528.015 241.067 525.722 241.28 523.375 241.28C521.028 241.28 518.895 241.12 516.975 240.8C515.162 240.48 513.615 239.84 512.335 238.88C511.055 237.92 510.042 236.64 509.295 235.04C508.655 233.333 508.335 231.147 508.335 228.48V163.36C509.508 163.147 511.215 162.88 513.455 162.56C515.802 162.133 518.148 161.92 520.495 161.92C522.842 161.92 524.922 162.08 526.735 162.4C528.655 162.72 530.255 163.36 531.535 164.32C532.815 165.28 533.775 166.613 534.415 168.32C535.162 169.92 535.535 172.053 535.535 174.72V239.84ZM590.771 159.84C596.851 159.84 602.345 160.64 607.251 162.24C612.265 163.733 616.478 165.707 619.891 168.16C622.025 169.653 623.678 171.307 624.851 173.12C626.131 174.933 626.771 177.28 626.771 180.16V236.16C626.771 241.813 625.705 246.667 623.571 250.72C621.438 254.88 618.505 258.293 614.771 260.96C611.145 263.733 606.825 265.76 601.811 267.04C596.905 268.32 591.625 268.96 585.971 268.96C576.265 268.96 568.638 267.627 563.091 264.96C557.545 262.4 554.771 258.187 554.771 252.32C554.771 249.867 555.251 247.68 556.211 245.76C557.278 243.947 558.451 242.56 559.731 241.6C562.825 243.307 566.291 244.747 570.131 245.92C574.078 247.093 578.131 247.68 582.291 247.68C588.051 247.68 592.638 246.72 596.051 244.8C599.465 242.88 601.171 239.787 601.171 235.52V232.96C596.798 234.88 591.465 235.84 585.171 235.84C580.371 235.84 575.785 235.147 571.411 233.76C567.145 232.267 563.358 230.027 560.051 227.04C556.851 223.947 554.238 220 552.211 215.2C550.291 210.4 549.331 204.693 549.331 198.08C549.331 191.573 550.345 185.92 552.371 181.12C554.505 176.32 557.385 172.373 561.011 169.28C564.745 166.08 569.118 163.733 574.131 162.24C579.251 160.64 584.798 159.84 590.771 159.84ZM600.691 183.04C599.945 182.613 598.825 182.187 597.331 181.76C595.945 181.333 594.185 181.12 592.051 181.12C586.825 181.12 582.878 182.613 580.211 185.6C577.651 188.48 576.371 192.64 576.371 198.08C576.371 204.267 577.651 208.747 580.211 211.52C582.878 214.187 586.238 215.52 590.291 215.52C594.665 215.52 598.131 214.507 600.691 212.48V183.04ZM720.433 239.84C719.366 240.16 717.659 240.48 715.312 240.8C713.073 241.12 710.726 241.28 708.273 241.28C705.926 241.28 703.793 241.12 701.873 240.8C700.059 240.48 698.513 239.84 697.233 238.88C695.953 237.92 694.939 236.64 694.193 235.04C693.553 233.333 693.233 231.147 693.233 228.48V192.96C693.233 188.587 692.113 185.547 689.873 183.84C687.739 182.027 685.073 181.12 681.873 181.12C679.739 181.12 677.713 181.387 675.793 181.92C673.873 182.453 672.326 183.093 671.153 183.84V239.84C670.086 240.16 668.379 240.48 666.033 240.8C663.793 241.12 661.446 241.28 658.993 241.28C656.646 241.28 654.513 241.12 652.593 240.8C650.779 240.48 649.233 239.84 647.953 238.88C646.673 237.92 645.659 236.64 644.913 235.04C644.273 233.333 643.953 231.147 643.953 228.48V135.68C645.126 135.467 646.833 135.2 649.073 134.88C651.419 134.453 653.766 134.24 656.113 134.24C658.459 134.24 660.539 134.4 662.353 134.72C664.273 135.04 665.873 135.68 667.153 136.64C668.433 137.6 669.393 138.933 670.033 140.64C670.779 142.24 671.153 144.373 671.153 147.04V162.72C672.539 162.187 674.619 161.6 677.393 160.96C680.273 160.213 683.419 159.84 686.833 159.84C697.393 159.84 705.606 162.507 711.473 167.84C717.446 173.067 720.433 180.907 720.433 191.36V239.84ZM764.426 213.28C764.426 216.053 765.28 218.027 766.986 219.2C768.8 220.373 771.306 220.96 774.506 220.96C776.106 220.96 777.76 220.853 779.466 220.64C781.173 220.32 782.666 219.947 783.946 219.52C784.906 220.693 785.706 222.027 786.346 223.52C787.093 224.907 787.466 226.613 787.466 228.64C787.466 232.693 785.92 236 782.826 238.56C779.84 241.12 774.506 242.4 766.826 242.4C757.44 242.4 750.186 240.267 745.066 236C740.053 231.733 737.546 224.8 737.546 215.2V146.72C738.72 146.4 740.373 146.08 742.506 145.76C744.746 145.333 747.093 145.12 749.546 145.12C754.24 145.12 757.866 145.973 760.426 147.68C763.093 149.28 764.426 152.747 764.426 158.08V168.32H785.386C786.026 169.493 786.613 170.987 787.146 172.8C787.786 174.507 788.106 176.427 788.106 178.56C788.106 182.293 787.253 185.013 785.546 186.72C783.946 188.32 781.76 189.12 778.986 189.12H764.426V213.28Z" fill="#6DD26B"/>
</mask>
<g mask="url(#mask0)">
<rect width="1400" height="320" fill="#e94560"/>
</g>
</g>
<defs>
<clipPath id="clip0">
<rect width="1400" height="320" fill="white"/>
</clipPath>
</defs>
</svg>
