<svg width="100" height="100" viewBox="0 0 100 100" fill="none" xmlns="http://www.w3.org/2000/svg">
<rect width="100" height="100" fill="none"/>
<circle cx="50" cy="50" r="50" fill="black"/>
<path d="M13.8086 71V28.3438H26.9336C30.6836 28.3438 34.0332 29.1934 36.9824 30.8926C39.9512 32.5723 42.2656 34.9746 43.9258 38.0996C45.5859 41.2051 46.416 44.7402 46.416 48.7051V50.668C46.416 54.6328 45.5957 58.1582 43.9551 61.2441C42.334 64.3301 40.0391 66.7227 37.0703 68.4219C34.1016 70.1211 30.752 70.9805 27.0215 71H13.8086ZM22.5977 35.4629V63.9395H26.8457C30.2832 63.9395 32.9102 62.8164 34.7266 60.5703C36.543 58.3242 37.4707 55.1113 37.5098 50.9316V48.6758C37.5098 44.3398 36.6113 41.0586 34.8145 38.832C33.0176 36.5859 30.3906 35.4629 26.9336 35.4629H22.5977ZM86.582 65.6094C85 67.5039 82.7637 68.9785 79.873 70.0332C76.9824 71.0684 73.7793 71.5859 70.2637 71.5859C66.5723 71.5859 63.3301 70.7852 60.5371 69.1836C57.7637 67.5625 55.6152 65.2188 54.0918 62.1523C52.5879 59.0859 51.8164 55.4824 51.7773 51.3418V48.4414C51.7773 44.1836 52.4902 40.502 53.916 37.3965C55.3613 34.2715 57.4316 31.8887 60.127 30.248C62.8418 28.5879 66.0156 27.7578 69.6484 27.7578C74.707 27.7578 78.6621 28.9688 81.5137 31.3906C84.3652 33.793 86.0547 37.2988 86.582 41.9082H78.0273C77.6367 39.4668 76.7676 37.6797 75.4199 36.5469C74.0918 35.4141 72.2559 34.8477 69.9121 34.8477C66.9238 34.8477 64.6484 35.9707 63.0859 38.2168C61.5234 40.4629 60.7324 43.8027 60.7129 48.2363V50.9609C60.7129 55.4336 61.5625 58.8125 63.2617 61.0977C64.9609 63.3828 67.4512 64.5254 70.7324 64.5254C74.0332 64.5254 76.3867 63.8223 77.793 62.416V55.0625H69.7949V48.5879H86.582V65.6094Z" fill="white"/>
</svg>
